<svg viewBox="0 0 1200 260" xmlns="http://www.w3.org/2000/svg" role="img" aria-label="borrowed-brain">
  <defs>
    <linearGradient id="bg" x1="0" y1="0" x2="1" y2="1">
      <stop offset="0%" stop-color="#14141c"/>
      <stop offset="100%" stop-color="#1f1f2e"/>
    </linearGradient>
  </defs>
  <rect width="1200" height="260" rx="18" fill="url(#bg)"/>

  <!-- minimal node/connection motif suggesting a "borrowed" thinking pattern -->
  <g stroke="#4a4a6a" stroke-width="1.5" opacity="0.7">
    <line x1="960" y1="70" x2="1040" y2="110"/>
    <line x1="1040" y1="110" x2="1010" y2="180"/>
    <line x1="1010" y1="180" x2="920" y2="170"/>
    <line x1="920" y1="170" x2="960" y2="70"/>
    <line x1="1040" y1="110" x2="1120" y2="90"/>
    <line x1="1010" y1="180" x2="1080" y2="210"/>
  </g>
  <g fill="#7d7dc9">
    <circle cx="960" cy="70" r="6"/>
    <circle cx="1040" cy="110" r="7"/>
    <circle cx="1010" cy="180" r="6"/>
    <circle cx="920" cy="170" r="5"/>
    <circle cx="1120" cy="90" r="5"/>
    <circle cx="1080" cy="210" r="5"/>
  </g>

  <text x="70" y="120" font-family="'SF Mono', 'Fira Code', Consolas, monospace" font-size="56" font-weight="700" fill="#f2f2f7">borrowed-brain</text>
  <text x="70" y="165" font-family="-apple-system, 'Segoe UI', Helvetica, Arial, sans-serif" font-size="24" fill="#a6a6c1">A structured thinking profile — one more lens, never a verdict.</text>

  <rect x="70" y="195" width="150" height="34" rx="17" fill="none" stroke="#4a4a6a" stroke-width="1.5"/>
  <text x="95" y="217" font-family="-apple-system, 'Segoe UI', Helvetica, Arial, sans-serif" font-size="15" fill="#c9c9dd">Claude Skill</text>

  <rect x="235" y="195" width="130" height="34" rx="17" fill="none" stroke="#4a4a6a" stroke-width="1.5"/>
  <text x="257" y="217" font-family="-apple-system, 'Segoe UI', Helvetica, Arial, sans-serif" font-size="15" fill="#c9c9dd">No dependencies</text>
</svg>
